<svg width="165" height="39" viewBox="0 0 165 39" fill="none" xmlns="http://www.w3.org/2000/svg">
<path d="M82.494 6.85425C83.5539 6.85425 84.5322 7.42333 85.0562 8.34466C85.82 9.68778 85.6235 11.3713 84.571 12.5024L79.4324 18.0251L61.7117 38.0165C61.1866 38.6088 60.4329 38.9479 59.6413 38.9479H39.5826C38.3692 38.9479 37.8809 38.1762 37.7536 37.0263C37.5334 35.0384 38.6412 33.1757 39.9853 31.6945L59.365 10.3387C60.4172 9.17911 61.7423 8.30056 63.22 7.7827L64.5366 7.32132C65.4187 7.01216 66.3468 6.85425 67.2816 6.85425H82.494ZM64.883 10.6016C63.1147 10.6016 61.8003 12.2376 62.1812 13.9643L63.6909 20.8077C64.3703 23.8874 68.2487 24.9077 70.3556 22.5609L78.6065 13.3706C79.566 12.3019 78.8075 10.6016 77.3713 10.6016H64.883ZM58.6834 34.9622C60.3797 34.9622 61.6766 33.4496 61.4176 31.7731L60.258 24.2674C59.761 21.0504 55.7581 19.844 53.5663 22.2508L44.5198 32.1845C43.549 33.2505 44.3053 34.9622 45.7471 34.9622H58.6834Z" fill="#FFFDF6"/>
<path d="M125.696 6.85425C126.756 6.85425 127.734 7.42333 128.258 8.34466C129.022 9.68778 128.826 11.3713 127.773 12.5024L122.634 18.0251L104.749 38.075C104.224 38.6635 103.473 39 102.684 39H82.8967C81.7086 39 81.1549 38.3303 80.9618 37.2818C80.6017 35.3269 81.7533 33.4553 83.0839 31.9784L102.561 10.3579C103.617 9.18601 104.951 8.29838 106.439 7.7767L107.739 7.32132C108.621 7.01216 109.549 6.85425 110.484 6.85425H125.696ZM108.235 10.6016C106.478 10.6016 105.166 12.2178 105.527 13.9371L106.959 20.7529C107.609 23.8466 111.491 24.9009 113.617 22.5608L121.958 13.3778C122.927 12.3112 122.17 10.6016 120.729 10.6016H108.235ZM101.851 35.2389C103.531 35.2389 104.823 33.754 104.591 32.0902L103.499 24.2545C103.043 20.9886 98.9758 19.749 96.7765 22.2059L87.5871 32.4717C86.63 33.541 87.3889 35.2389 88.824 35.2389H101.851Z" fill="#FFFDF6"/>
<path d="M4.58421 38.9479C3.0099 38.9479 2.05718 37.0811 3.11367 35.914L28.5579 7.80415C29.1054 7.19931 29.8832 6.85425 30.699 6.85425C32.5778 6.85425 33.9564 8.6199 33.5007 10.4426L31.5511 18.2409C30.5709 22.1618 35.4972 24.7751 38.1939 21.7649L50.786 7.70851C51.273 7.16489 51.9684 6.85425 52.6982 6.85425C54.1785 6.85425 54.9607 8.60614 53.9726 9.70828L28.6068 38.0008C28.0665 38.6035 27.2952 38.9479 26.4857 38.9479C24.614 38.9479 23.2508 37.1736 23.7331 35.3651L25.526 28.6417C26.5585 24.7698 21.7514 22.0706 18.983 24.9677L6.42863 38.106C5.91481 38.6437 5.32795 38.9479 4.58421 38.9479Z" fill="#FFFDF6"/>
<path d="M73.796 30.8385C73.9011 30.7173 74.0536 30.6476 74.2141 30.6476H77.7297C78.2039 30.6476 78.4584 31.205 78.1479 31.5633L75.5103 34.6067C75.4052 34.728 75.2526 34.7976 75.0921 34.7976H71.5765C71.1024 34.7976 70.8478 34.2402 71.1584 33.8819L73.796 30.8385Z" fill="#FFFDF6"/>
<path d="M91.5023 10.9182C91.6074 10.797 91.7599 10.7273 91.9204 10.7273H95.436C95.9102 10.7273 96.1647 11.2847 95.8542 11.643L93.2166 14.6864C93.1115 14.8077 92.9589 14.8773 92.7984 14.8773H89.2828C88.8087 14.8773 88.5541 14.3199 88.8647 13.9616L91.5023 10.9182Z" fill="#FFFDF6"/>
<path d="M113.914 38.9691C112.178 38.9691 111.264 36.9102 112.428 35.6222L137.687 7.69526C138.024 7.3228 138.503 7.11028 139.005 7.11028C140.54 7.11028 141.353 8.92543 140.331 10.0705L134.444 16.665C133.614 17.5948 134.886 18.9044 135.839 18.102L138.835 15.5819C142.336 12.6373 147.304 16.7567 145.059 20.7422C144.558 21.6305 145.751 22.4929 146.438 21.739L159.22 7.7035C159.564 7.32633 160.05 7.11136 160.56 7.11136C162.13 7.11136 162.958 8.97089 161.907 10.1371L136.666 38.1572C136.2 38.674 135.537 38.9691 134.841 38.9691C133.306 38.9691 132.364 37.2864 133.167 35.9776L136.582 30.4123C138.796 26.8037 134.262 22.8682 131.001 25.5683L115.511 38.3938C115.062 38.7656 114.497 38.9691 113.914 38.9691Z" fill="#FFFDF6"/>
</svg>
